<svg width="1200" height="720" viewBox="0 0 1200 720" fill="none" xmlns="http://www.w3.org/2000/svg">
  <defs>
    <linearGradient id="bg" x1="90" y1="50" x2="1110" y2="680" gradientUnits="userSpaceOnUse">
      <stop stop-color="#0A1835"/>
      <stop offset="0.55" stop-color="#12335F"/>
      <stop offset="1" stop-color="#0E5E7A"/>
    </linearGradient>
    <linearGradient id="card" x1="220" y1="170" x2="1000" y2="520" gradientUnits="userSpaceOnUse">
      <stop stop-color="#FFFFFF" stop-opacity="0.94"/>
      <stop offset="1" stop-color="#DDEAF8" stop-opacity="0.82"/>
    </linearGradient>
    <linearGradient id="accent" x1="160" y1="520" x2="1020" y2="220" gradientUnits="userSpaceOnUse">
      <stop stop-color="#8EB8FF"/>
      <stop offset="1" stop-color="#79F2D5"/>
    </linearGradient>
    <filter id="shadow" x="130" y="120" width="940" height="450" filterUnits="userSpaceOnUse" color-interpolation-filters="sRGB">
      <feDropShadow dx="0" dy="18" stdDeviation="24" flood-color="#041024" flood-opacity="0.35"/>
    </filter>
  </defs>
  <rect width="1200" height="720" rx="44" fill="url(#bg)"/>
  <circle cx="1030" cy="120" r="160" fill="#7DD7FF" fill-opacity="0.14"/>
  <circle cx="175" cy="610" r="150" fill="#8B76FF" fill-opacity="0.12"/>
  <g opacity="0.17">
    <path d="M0 110H1200" stroke="#BFD3EA"/>
    <path d="M0 215H1200" stroke="#BFD3EA"/>
    <path d="M0 320H1200" stroke="#BFD3EA"/>
    <path d="M0 425H1200" stroke="#BFD3EA"/>
    <path d="M0 530H1200" stroke="#BFD3EA"/>
    <path d="M0 635H1200" stroke="#BFD3EA"/>
    <path d="M160 0V720" stroke="#BFD3EA"/>
    <path d="M320 0V720" stroke="#BFD3EA"/>
    <path d="M480 0V720" stroke="#BFD3EA"/>
    <path d="M640 0V720" stroke="#BFD3EA"/>
    <path d="M800 0V720" stroke="#BFD3EA"/>
    <path d="M960 0V720" stroke="#BFD3EA"/>
  </g>
  <g filter="url(#shadow)">
    <rect x="165" y="145" width="870" height="430" rx="30" fill="url(#card)"/>
  </g>
  <rect x="205" y="188" width="230" height="54" rx="27" fill="#EAF2FC"/>
  <text x="245" y="223" fill="#203253" font-family="Georgia, 'Times New Roman', serif" font-size="30" font-weight="700">AI Form Flow</text>
  <text x="205" y="294" fill="#182A49" font-family="Georgia, 'Times New Roman', serif" font-size="60" font-weight="700">FormSathi</text>
  <text x="206" y="344" fill="#51617F" font-family="Georgia, 'Times New Roman', serif" font-size="24">Document intelligence for guided multilingual form completion</text>
  <rect x="206" y="388" width="430" height="16" rx="8" fill="url(#accent)"/>
  <rect x="206" y="422" width="520" height="16" rx="8" fill="url(#accent)" fill-opacity="0.86"/>
  <rect x="206" y="456" width="310" height="16" rx="8" fill="url(#accent)" fill-opacity="0.72"/>
  <rect x="735" y="235" width="230" height="230" rx="26" fill="#F7FBFF"/>
  <rect x="770" y="270" width="160" height="18" rx="9" fill="#89A8FF"/>
  <rect x="770" y="310" width="100" height="14" rx="7" fill="#8ADCC8"/>
  <rect x="770" y="338" width="124" height="14" rx="7" fill="#C7D7EE"/>
  <rect x="770" y="366" width="138" height="14" rx="7" fill="#C7D7EE"/>
  <rect x="770" y="408" width="88" height="24" rx="12" fill="#153865"/>
  <text x="792" y="425" fill="#F7FAFF" font-family="Arial, sans-serif" font-size="12" font-weight="700">PDF</text>
  <path d="M675 312C703 286 742 281 764 292C786 303 796 334 781 357C766 380 724 389 695 370C666 351 647 338 640 350C633 362 641 391 661 410" stroke="url(#accent)" stroke-width="10" stroke-linecap="round"/>
  <path d="M641 409L629 392M641 409L621 414" stroke="url(#accent)" stroke-width="10" stroke-linecap="round"/>
</svg>
