<svg width="1200" height="720" viewBox="0 0 1200 720" fill="none" xmlns="http://www.w3.org/2000/svg">
  <defs>
    <linearGradient id="bg" x1="80" y1="50" x2="1120" y2="670" gradientUnits="userSpaceOnUse">
      <stop stop-color="#0B1A31"/>
      <stop offset="0.55" stop-color="#14345E"/>
      <stop offset="1" stop-color="#0F6B79"/>
    </linearGradient>
    <linearGradient id="panel" x1="154" y1="152" x2="1045" y2="565" gradientUnits="userSpaceOnUse">
      <stop stop-color="#FAFCFF" stop-opacity="0.96"/>
      <stop offset="1" stop-color="#DCE8F7" stop-opacity="0.9"/>
    </linearGradient>
    <linearGradient id="chart" x1="235" y1="450" x2="955" y2="278" gradientUnits="userSpaceOnUse">
      <stop stop-color="#8FAFFF"/>
      <stop offset="1" stop-color="#74EDD4"/>
    </linearGradient>
    <filter id="shadow" x="118" y="120" width="964" height="474" filterUnits="userSpaceOnUse" color-interpolation-filters="sRGB">
      <feDropShadow dx="0" dy="18" stdDeviation="24" flood-color="#071222" flood-opacity="0.42"/>
    </filter>
  </defs>
  <rect width="1200" height="720" rx="44" fill="url(#bg)"/>
  <circle cx="1018" cy="126" r="150" fill="#80D8FF" fill-opacity="0.14"/>
  <circle cx="182" cy="620" r="150" fill="#8A87FF" fill-opacity="0.12"/>
  <g opacity="0.11">
    <path d="M0 120H1200" stroke="#D7E2F0"/>
    <path d="M0 240H1200" stroke="#D7E2F0"/>
    <path d="M0 360H1200" stroke="#D7E2F0"/>
    <path d="M0 480H1200" stroke="#D7E2F0"/>
    <path d="M0 600H1200" stroke="#D7E2F0"/>
    <path d="M150 0V720" stroke="#D7E2F0"/>
    <path d="M300 0V720" stroke="#D7E2F0"/>
    <path d="M450 0V720" stroke="#D7E2F0"/>
    <path d="M600 0V720" stroke="#D7E2F0"/>
    <path d="M750 0V720" stroke="#D7E2F0"/>
    <path d="M900 0V720" stroke="#D7E2F0"/>
    <path d="M1050 0V720" stroke="#D7E2F0"/>
  </g>
  <g filter="url(#shadow)">
    <rect x="155" y="150" width="890" height="424" rx="30" fill="url(#panel)"/>
  </g>
  <text x="205" y="240" fill="#1A2C4B" font-family="Georgia, 'Times New Roman', serif" font-size="56" font-weight="700">HR Analytics Dashboard</text>
  <text x="205" y="290" fill="#56657F" font-family="Georgia, 'Times New Roman', serif" font-size="24">Power BI dashboard for attrition trends, workforce metrics, and HR decisions</text>
  <rect x="205" y="336" width="170" height="52" rx="26" fill="#EDF4FD"/>
  <text x="241" y="371" fill="#26395B" font-family="Georgia, 'Times New Roman', serif" font-size="28" font-weight="700">Power BI</text>
  <rect x="670" y="214" width="290" height="238" rx="24" fill="#F9FBFF"/>
  <rect x="706" y="250" width="214" height="48" rx="16" fill="#0F2546"/>
  <text x="742" y="282" fill="#FFFFFF" font-family="Arial, sans-serif" font-size="22" font-weight="700">Attrition 16.1%</text>
  <rect x="706" y="330" width="46" height="82" rx="14" fill="#90AEFF"/>
  <rect x="776" y="294" width="46" height="118" rx="14" fill="#79DCD3"/>
  <rect x="846" y="268" width="46" height="144" rx="14" fill="#B2C7EA"/>
  <path d="M706 432H920" stroke="#CCD9EC" stroke-width="4" stroke-linecap="round"/>
  <rect x="205" y="432" width="332" height="18" rx="9" fill="url(#chart)"/>
  <rect x="205" y="468" width="280" height="18" rx="9" fill="url(#chart)" fill-opacity="0.8"/>
</svg>
